<mxfile host="app.diagrams.net" agent="Mozilla/5.0 (Windows NT 10.0; Win64; x64) AppleWebKit/537.36 (KHTML, like Gecko) Chrome/129.0.0.0 Safari/537.36" version="24.7.17">
  <diagram name="Página-1" id="Xb72JX5yIfEf6OJGOE3o">
    <mxGraphModel dx="3520" dy="1864" grid="1" gridSize="10" guides="1" tooltips="1" connect="1" arrows="1" fold="1" page="1" pageScale="1" pageWidth="827" pageHeight="1169" math="0" shadow="0">
      <root>
        <mxCell id="0" />
        <mxCell id="1" parent="0" />
        <mxCell id="vRkLcbU7f6GZl_3hHBNP-1" value="Vesta Risk Manager" style="shape=folder;fontStyle=1;spacingTop=10;tabWidth=40;tabHeight=14;tabPosition=left;html=1;whiteSpace=wrap;" vertex="1" parent="1">
          <mxGeometry x="70" y="340" width="160" height="100" as="geometry" />
        </mxCell>
        <mxCell id="vRkLcbU7f6GZl_3hHBNP-8" style="edgeStyle=orthogonalEdgeStyle;rounded=0;orthogonalLoop=1;jettySize=auto;html=1;endArrow=none;endFill=0;" edge="1" parent="1" source="vRkLcbU7f6GZl_3hHBNP-3" target="vRkLcbU7f6GZl_3hHBNP-5">
          <mxGeometry relative="1" as="geometry" />
        </mxCell>
        <mxCell id="vRkLcbU7f6GZl_3hHBNP-3" value="Presentación" style="shape=folder;fontStyle=1;spacingTop=10;tabWidth=40;tabHeight=14;tabPosition=left;html=1;whiteSpace=wrap;" vertex="1" parent="1">
          <mxGeometry x="490" y="160" width="160" height="100" as="geometry" />
        </mxCell>
        <mxCell id="vRkLcbU7f6GZl_3hHBNP-4" value="Admin" style="shape=folder;fontStyle=1;spacingTop=10;tabWidth=40;tabHeight=14;tabPosition=left;html=1;whiteSpace=wrap;" vertex="1" parent="1">
          <mxGeometry x="810" y="30" width="160" height="100" as="geometry" />
        </mxCell>
        <mxCell id="vRkLcbU7f6GZl_3hHBNP-5" value="Usuario" style="shape=folder;fontStyle=1;spacingTop=10;tabWidth=40;tabHeight=14;tabPosition=left;html=1;whiteSpace=wrap;" vertex="1" parent="1">
          <mxGeometry x="810" y="160" width="160" height="100" as="geometry" />
        </mxCell>
        <mxCell id="vRkLcbU7f6GZl_3hHBNP-6" value="Espectador" style="shape=folder;fontStyle=1;spacingTop=10;tabWidth=40;tabHeight=14;tabPosition=left;html=1;whiteSpace=wrap;" vertex="1" parent="1">
          <mxGeometry x="810" y="290" width="160" height="100" as="geometry" />
        </mxCell>
        <mxCell id="vRkLcbU7f6GZl_3hHBNP-7" style="edgeStyle=orthogonalEdgeStyle;rounded=0;orthogonalLoop=1;jettySize=auto;html=1;entryX=0;entryY=0;entryDx=0;entryDy=78.5;entryPerimeter=0;endArrow=none;endFill=0;" edge="1" parent="1" source="vRkLcbU7f6GZl_3hHBNP-3" target="vRkLcbU7f6GZl_3hHBNP-4">
          <mxGeometry relative="1" as="geometry" />
        </mxCell>
        <mxCell id="vRkLcbU7f6GZl_3hHBNP-9" style="edgeStyle=orthogonalEdgeStyle;rounded=0;orthogonalLoop=1;jettySize=auto;html=1;entryX=0;entryY=0;entryDx=0;entryDy=57;entryPerimeter=0;endArrow=none;endFill=0;" edge="1" parent="1" source="vRkLcbU7f6GZl_3hHBNP-3" target="vRkLcbU7f6GZl_3hHBNP-6">
          <mxGeometry relative="1" as="geometry" />
        </mxCell>
        <mxCell id="vRkLcbU7f6GZl_3hHBNP-10" style="edgeStyle=orthogonalEdgeStyle;rounded=0;orthogonalLoop=1;jettySize=auto;html=1;entryX=0;entryY=0;entryDx=0;entryDy=57;entryPerimeter=0;endArrow=none;endFill=0;" edge="1" parent="1" source="vRkLcbU7f6GZl_3hHBNP-1" target="vRkLcbU7f6GZl_3hHBNP-3">
          <mxGeometry relative="1" as="geometry" />
        </mxCell>
        <mxCell id="vRkLcbU7f6GZl_3hHBNP-11" value="Logica" style="shape=folder;fontStyle=1;spacingTop=10;tabWidth=40;tabHeight=14;tabPosition=left;html=1;whiteSpace=wrap;" vertex="1" parent="1">
          <mxGeometry x="490" y="640" width="160" height="100" as="geometry" />
        </mxCell>
        <mxCell id="vRkLcbU7f6GZl_3hHBNP-12" style="edgeStyle=orthogonalEdgeStyle;rounded=0;orthogonalLoop=1;jettySize=auto;html=1;entryX=0;entryY=0;entryDx=0;entryDy=57;entryPerimeter=0;endArrow=none;endFill=0;" edge="1" parent="1" source="vRkLcbU7f6GZl_3hHBNP-1" target="vRkLcbU7f6GZl_3hHBNP-11">
          <mxGeometry relative="1" as="geometry" />
        </mxCell>
        <mxCell id="vRkLcbU7f6GZl_3hHBNP-13" value="Gestión riesgos" style="shape=folder;fontStyle=1;spacingTop=10;tabWidth=40;tabHeight=14;tabPosition=left;html=1;whiteSpace=wrap;" vertex="1" parent="1">
          <mxGeometry x="810" y="460" width="160" height="100" as="geometry" />
        </mxCell>
        <mxCell id="vRkLcbU7f6GZl_3hHBNP-14" value="Gestión Proyecto" style="shape=folder;fontStyle=1;spacingTop=10;tabWidth=40;tabHeight=14;tabPosition=left;html=1;whiteSpace=wrap;" vertex="1" parent="1">
          <mxGeometry x="810" y="590" width="160" height="100" as="geometry" />
        </mxCell>
        <mxCell id="vRkLcbU7f6GZl_3hHBNP-15" value="Gestión usuarios" style="shape=folder;fontStyle=1;spacingTop=10;tabWidth=40;tabHeight=14;tabPosition=left;html=1;whiteSpace=wrap;" vertex="1" parent="1">
          <mxGeometry x="810" y="730" width="160" height="100" as="geometry" />
        </mxCell>
        <mxCell id="vRkLcbU7f6GZl_3hHBNP-16" value="Base de datos" style="shape=folder;fontStyle=1;spacingTop=10;tabWidth=40;tabHeight=14;tabPosition=left;html=1;whiteSpace=wrap;" vertex="1" parent="1">
          <mxGeometry x="486" y="1000" width="160" height="100" as="geometry" />
        </mxCell>
        <mxCell id="vRkLcbU7f6GZl_3hHBNP-17" value="Modelos" style="shape=folder;fontStyle=1;spacingTop=10;tabWidth=40;tabHeight=14;tabPosition=left;html=1;whiteSpace=wrap;" vertex="1" parent="1">
          <mxGeometry x="810" y="860" width="160" height="100" as="geometry" />
        </mxCell>
        <mxCell id="vRkLcbU7f6GZl_3hHBNP-18" style="edgeStyle=orthogonalEdgeStyle;rounded=0;orthogonalLoop=1;jettySize=auto;html=1;entryX=0;entryY=0;entryDx=0;entryDy=57;entryPerimeter=0;endArrow=none;endFill=0;" edge="1" parent="1" source="vRkLcbU7f6GZl_3hHBNP-11" target="vRkLcbU7f6GZl_3hHBNP-13">
          <mxGeometry relative="1" as="geometry" />
        </mxCell>
        <mxCell id="vRkLcbU7f6GZl_3hHBNP-19" style="edgeStyle=orthogonalEdgeStyle;rounded=0;orthogonalLoop=1;jettySize=auto;html=1;endArrow=none;endFill=0;" edge="1" parent="1" source="vRkLcbU7f6GZl_3hHBNP-11" target="vRkLcbU7f6GZl_3hHBNP-14">
          <mxGeometry relative="1" as="geometry">
            <mxPoint x="660" y="700" as="sourcePoint" />
            <mxPoint x="820" y="527" as="targetPoint" />
          </mxGeometry>
        </mxCell>
        <mxCell id="vRkLcbU7f6GZl_3hHBNP-21" style="edgeStyle=orthogonalEdgeStyle;rounded=0;orthogonalLoop=1;jettySize=auto;html=1;endArrow=none;endFill=0;entryX=0;entryY=0;entryDx=0;entryDy=57;entryPerimeter=0;" edge="1" parent="1" source="vRkLcbU7f6GZl_3hHBNP-11" target="vRkLcbU7f6GZl_3hHBNP-15">
          <mxGeometry relative="1" as="geometry">
            <mxPoint x="660" y="700" as="sourcePoint" />
            <mxPoint x="820" y="650" as="targetPoint" />
          </mxGeometry>
        </mxCell>
        <mxCell id="vRkLcbU7f6GZl_3hHBNP-22" style="edgeStyle=orthogonalEdgeStyle;rounded=0;orthogonalLoop=1;jettySize=auto;html=1;entryX=0.004;entryY=0.637;entryDx=0;entryDy=0;entryPerimeter=0;endArrow=none;endFill=0;" edge="1" parent="1" source="vRkLcbU7f6GZl_3hHBNP-11" target="vRkLcbU7f6GZl_3hHBNP-17">
          <mxGeometry relative="1" as="geometry" />
        </mxCell>
        <mxCell id="vRkLcbU7f6GZl_3hHBNP-24" style="edgeStyle=orthogonalEdgeStyle;rounded=0;orthogonalLoop=1;jettySize=auto;html=1;entryX=0;entryY=0;entryDx=0;entryDy=57;entryPerimeter=0;endArrow=none;endFill=0;" edge="1" parent="1" source="vRkLcbU7f6GZl_3hHBNP-1" target="vRkLcbU7f6GZl_3hHBNP-16">
          <mxGeometry relative="1" as="geometry" />
        </mxCell>
      </root>
    </mxGraphModel>
  </diagram>
</mxfile>
